<svg width="1080" height="1080" viewBox="0 0 1080 1080" fill="none" xmlns="http://www.w3.org/2000/svg">
<rect width="1080" height="1080" fill="#F5F5F5"/>
<g clip-path="url(#clip0_0_1)">
<rect width="1080" height="1080" fill="#0D0D0D"/>
<rect x="437" y="648" width="241" height="192" fill="#F2F2F2"/>
<g clip-path="url(#clip1_0_1)">
<path fill-rule="evenodd" clip-rule="evenodd" d="M108.224 1781.47C158.078 1781.63 206.52 1783.33 256.513 1783.5C459.736 1784.18 664.828 1783.19 868.788 1774.96C926.435 1772.64 940.825 1772.69 998.223 1769.08C1032.11 1768.96 1133.91 1766.16 1128.82 1720.06C1126.57 1634.18 1105.28 1548.67 1098.58 1463.03C1085.71 1302.03 1074.75 1136 1010.14 985.42C995.185 949.458 963.065 925.941 931.27 904.795C899.383 881.982 891.558 856.653 862.129 830.881C855.906 825.432 820.57 823.214 801.557 809.391C773.885 789.273 760.161 756.334 749.837 750.726C742.239 746.601 742.378 718.137 727.151 708.062C706.717 694.543 641.602 684.49 617.911 682.61C595.173 680.806 555.623 684.596 534.289 692.913C498.712 706.782 484.522 733.238 468.854 767.321C261.854 831.223 72.6518 939.43 13.8928 1157.69C-36.7787 1340.75 -38.6358 1536.99 -19.0605 1724.73C-15.1445 1738.46 -17.8891 1759.98 -6.01122 1769.08C-47.2895 1771.45 102.624 1779.95 108.224 1781.47Z" fill="white"/>
<path fill-rule="evenodd" clip-rule="evenodd" d="M1049.74 1600.72C1045.82 1598.77 1041.73 1596.54 1037.26 1596.38C1029.58 1596.11 1029.57 1584.17 1037.26 1584.44C1043.97 1584.68 1049.86 1587.47 1055.77 1590.41C1062.66 1593.85 1056.6 1604.14 1049.74 1600.72ZM1037.26 1264.67C1042.5 1264.68 1047.79 1265.34 1051.82 1269C1054.21 1271.18 1054.02 1275.24 1051.82 1277.44C1049.46 1279.8 1045.75 1279.61 1043.36 1277.44C1044.14 1278.15 1043.37 1277.45 1043.09 1277.29C1043.02 1277.26 1042.98 1277.23 1042.96 1277.22C1042.9 1277.2 1042.84 1277.19 1042.75 1277.16C1042.12 1277.01 1041.51 1276.85 1040.87 1276.74C1040.86 1276.77 1039.54 1276.65 1039.23 1276.64C1038.57 1276.62 1037.92 1276.61 1037.26 1276.61C1034.02 1276.61 1031.29 1273.88 1031.29 1270.64C1031.29 1267.42 1034.03 1264.67 1037.26 1264.67ZM981.062 1398.59C979.35 1406.09 967.829 1402.9 969.536 1395.42C972.02 1384.54 971.567 1373.4 969.536 1362.49C968.138 1354.97 979.659 1351.77 981.062 1359.31C983.497 1372.4 984.043 1385.54 981.062 1398.59ZM965.966 969.526C957.064 967.415 948.259 967.164 939.155 967.161C931.451 967.158 931.463 955.219 939.155 955.222C949.31 955.225 959.223 955.661 969.144 958.014C976.635 959.792 973.444 971.299 965.966 969.526ZM936.138 1260.32C930.976 1257.75 925.811 1255.17 920.649 1252.59C913.758 1249.15 919.82 1238.85 926.681 1242.28L942.171 1250.02C949.059 1253.46 942.999 1263.75 936.138 1260.32ZM933.988 1495.43C927.44 1504.86 918.232 1510.72 907.181 1513.65C899.726 1515.62 896.573 1504.1 904.003 1502.13C911.906 1500.04 918.926 1496.23 923.667 1489.4C928.025 1483.13 938.382 1489.1 933.988 1495.43ZM892.687 1075.09C890.915 1071.78 888.248 1070.39 884.938 1070.31C877.246 1070.14 877.245 1058.2 884.938 1058.37C892.483 1058.54 899.402 1062.33 903.007 1069.07C906.636 1075.85 896.313 1081.87 892.687 1075.09ZM816.875 1156.24C814.732 1158.57 810.577 1158.51 808.423 1156.24C807.104 1154.85 805.995 1153.3 805.123 1151.59C804.791 1150.95 804.479 1150.29 804.114 1149.66C803.951 1149.38 803.77 1149.1 803.585 1148.84C803.522 1148.78 803.392 1148.65 803.258 1148.5C800.962 1146.08 801.02 1142.5 803.258 1140.06C805.402 1137.73 809.557 1137.79 811.711 1140.06C813.029 1141.45 814.139 1143.01 815.01 1144.71C815.342 1145.36 815.654 1146.01 816.02 1146.64C816.183 1146.92 816.364 1147.2 816.549 1147.47C816.612 1147.52 816.74 1147.66 816.875 1147.8C819.173 1150.22 819.115 1153.8 816.875 1156.24ZM810.501 1332.53C802.717 1336.09 794.18 1336.09 786.396 1332.53C783.448 1331.18 782.749 1326.93 784.253 1324.36C785.995 1321.39 789.496 1320.88 792.429 1322.22C795.959 1323.83 800.944 1323.83 804.47 1322.22C807.416 1320.88 810.882 1321.35 812.645 1324.36C814.159 1326.95 813.437 1331.19 810.501 1332.53ZM789.269 1457.31C787.932 1460.48 785.044 1462.16 781.667 1462.28C778.322 1462.41 775.831 1459.45 775.691 1456.31C775.601 1454.29 776.696 1452.56 778.27 1451.49C778.271 1451.38 778.274 1451.27 778.274 1451.16C778.276 1447.81 781.011 1445.33 784.25 1445.19C787.476 1445.04 790.228 1448.04 790.227 1451.16C790.225 1453.26 790.095 1455.36 789.269 1457.31ZM758.431 1655.69C748.893 1655.85 739.573 1658.12 730.033 1658.27C722.325 1658.39 722.349 1646.46 730.033 1646.33C739.571 1646.18 748.892 1643.91 758.431 1643.75C766.139 1643.63 766.115 1655.57 758.431 1655.69ZM718.767 890.628C713.183 895.94 706.287 898.558 699.486 901.877C692.595 905.239 686.542 894.94 693.452 891.568C699.214 888.756 705.592 886.679 710.316 882.187C715.889 876.884 724.35 885.318 718.767 890.628ZM703.78 1028.24C699.862 1026.28 695.779 1024.05 691.307 1023.89C683.623 1023.63 683.612 1011.69 691.307 1011.96C698.015 1012.19 703.908 1014.98 709.812 1017.93C716.705 1021.36 710.643 1031.66 703.78 1028.24ZM631.928 1580.53C630.159 1577.22 627.492 1575.82 624.181 1575.75C616.488 1575.58 616.485 1563.64 624.181 1563.81C631.726 1563.98 638.645 1567.77 642.25 1574.5C645.878 1581.29 635.557 1587.31 631.928 1580.53ZM607.046 1321.28C604.667 1319.1 604.833 1315.05 607.046 1312.84C609.627 1310.26 612.209 1307.68 614.792 1305.1C617.153 1302.74 620.857 1302.92 623.243 1305.1C625.621 1307.28 625.456 1311.33 623.243 1313.55C620.66 1316.13 618.079 1318.7 615.498 1321.28C613.134 1323.64 609.432 1323.47 607.046 1321.28ZM577.708 1725.32C569.086 1725.12 561.003 1722.65 552.884 1719.95C545.609 1717.53 548.747 1706 556.062 1708.44C563.118 1710.78 570.206 1713.21 577.708 1713.38C585.401 1713.56 585.404 1725.5 577.708 1725.32ZM538.982 1470.02C531.191 1469.8 524.73 1465.84 519.266 1460.54C513.739 1455.17 522.2 1446.73 527.718 1452.09C530.845 1455.13 534.453 1457.96 538.982 1458.08C546.672 1458.3 546.678 1470.23 538.982 1470.02ZM563.03 1141.7C563.124 1144.88 564.469 1148.29 566.444 1150.38C571.726 1155.97 563.284 1164.42 557.992 1158.82C553.626 1154.2 551.261 1148.02 551.078 1141.7C550.856 1134.01 562.811 1134.04 563.03 1141.7ZM471.86 881.684C469.359 876.792 466.081 871.055 461.095 868.353C454.324 864.683 460.365 854.378 467.128 858.044C473.906 861.718 478.755 868.959 482.181 875.658C485.677 882.494 475.359 888.528 471.86 881.684ZM456.367 1005.84C453.594 1005.76 450.842 1005.29 448.167 1004.57C447.024 1004.25 445.895 1003.9 444.75 1003.59C444.26 1003.45 442.179 1003.2 443.458 1003.26C440.222 1003.09 437.482 1000.67 437.482 997.294C437.482 994.192 440.231 991.152 443.458 991.325C447.894 991.562 451.928 993.778 456.367 993.904C464.054 994.12 464.06 1006.06 456.367 1005.84ZM417.64 1196.67H404.731C397.028 1196.67 397.041 1184.73 404.731 1184.73H417.64C425.344 1184.73 425.33 1196.67 417.64 1196.67ZM402.583 1724.5C398.668 1726.46 394.055 1728.31 390.884 1731.31C385.294 1736.59 376.831 1728.15 382.432 1722.86C386.471 1719.05 391.634 1716.65 396.551 1714.2C399.448 1712.75 403.01 1713.4 404.728 1716.34C406.281 1718.99 405.469 1723.06 402.583 1724.5ZM373.74 1573.66C373.239 1573.52 372.71 1573.42 372.204 1573.35C370.172 1573.08 368.046 1573.17 366.005 1573.17C358.302 1573.17 358.313 1561.23 366.005 1561.23C372.066 1561.24 378.374 1561.32 383.141 1565.56C385.559 1567.71 385.325 1571.82 383.141 1574C380.765 1576.37 377.097 1576.15 374.689 1574C374.943 1574.23 374.072 1573.75 373.74 1573.66ZM366.008 1370.78C367.744 1367.21 367.771 1364.87 367.774 1360.9C367.78 1353.21 379.733 1353.22 379.727 1360.9C379.724 1366.67 378.865 1371.58 376.329 1376.81C374.914 1379.72 370.773 1380.48 368.154 1378.95C365.216 1377.23 364.602 1373.68 366.008 1370.78ZM331.449 1090.73C324.516 1093.08 318.328 1096.42 312.223 1100.44C305.779 1104.69 299.798 1094.35 306.19 1090.13C313.157 1085.54 320.363 1081.9 328.271 1079.22C335.583 1076.73 338.692 1088.27 331.449 1090.73ZM291.134 889.798C285.984 889.941 280.668 891.914 276.078 894.141C269.18 897.486 263.127 887.188 270.047 883.831C276.603 880.65 283.776 878.065 291.134 877.859C298.842 877.643 298.809 889.583 291.134 889.798ZM273.062 1426.18C271.036 1426.27 269.304 1425.18 268.231 1423.61C268.119 1423.61 268.009 1423.6 267.898 1423.6C264.548 1423.6 262.068 1420.87 261.922 1417.63C261.777 1414.41 264.772 1411.66 267.898 1411.66C270.008 1411.67 272.101 1411.79 274.061 1412.62C277.227 1413.95 278.909 1416.84 279.038 1420.21C279.165 1423.55 276.198 1426.04 273.062 1426.18ZM243.669 1013.37C236.328 1015.76 233.212 1004.23 240.491 1001.85C249.035 999.064 257.767 996.905 266.31 994.116C273.65 991.721 276.767 1003.25 269.486 1005.63C260.945 1008.42 252.212 1010.58 243.669 1013.37ZM216.863 1238.71C214.586 1246.03 203.054 1242.89 205.337 1235.53C207.542 1228.43 207.7 1221.29 207.705 1213.91C207.709 1206.22 219.662 1206.23 219.657 1213.91C219.653 1222.31 219.37 1230.63 216.863 1238.71ZM136.95 1508.61C136.515 1511.58 134.154 1513.72 131.065 1513.86C127.92 1514 124.975 1511.01 125.088 1507.89C125.308 1501.88 130.213 1496.98 136.228 1496.76C139.575 1496.64 142.064 1499.6 142.204 1502.73C142.342 1505.78 139.793 1508.16 136.95 1508.61ZM96.5082 1165.51C90.1928 1167.62 83.444 1169.62 78.4927 1174.29C72.8974 1179.57 64.4349 1171.14 70.0407 1165.85C76.5698 1159.69 84.968 1156.79 93.3318 1154C100.656 1151.56 103.768 1163.09 96.5082 1165.51ZM69.0994 1397.44C67.3633 1400.4 63.8477 1400.94 60.9238 1399.58C57.0034 1397.76 52.675 1397.82 48.4483 1397.81C40.7464 1397.81 40.7583 1385.87 48.4483 1385.88C54.9685 1385.88 60.9836 1386.5 66.9569 1389.27C69.8958 1390.64 70.6114 1394.86 69.0994 1397.44ZM53.6118 1678.9C50.2651 1679.02 47.776 1676.07 47.6355 1672.93C47.4981 1669.88 50.0455 1667.5 52.8917 1667.06C53.325 1664.09 55.6871 1661.94 58.7754 1661.8C61.9219 1661.66 64.8667 1664.65 64.7517 1667.77C64.532 1673.78 59.63 1678.68 53.6118 1678.9ZM1142.53 1724.04C1140.5 1716.74 1135.86 1710.85 1132.34 1704.28C1131.17 1702.07 1130.76 1700.69 1130.12 1699.07C1129.25 1700.81 1127.57 1702.11 1125.04 1702.11C1120.19 1702.11 1114.51 1701.8 1109.98 1703.87C1107.04 1705.22 1103.57 1704.74 1101.81 1701.73C1100.3 1699.15 1101.02 1694.91 1103.95 1693.56C1110.63 1690.51 1117.8 1690.17 1125.04 1690.17C1126.83 1690.17 1128.18 1690.83 1129.14 1691.82C1131.91 1653.97 1131.84 1616.1 1129.22 1578.22C1126.43 1537.75 1120 1498.09 1113.28 1458.14C1110.02 1438.76 1105.79 1419.2 1106.62 1399.47C1107.44 1379.88 1115.85 1361.61 1109.89 1341.96C1107.5 1334.08 1103.4 1326.85 1100.74 1319.06C1097.89 1310.68 1098.15 1302.39 1099.44 1293.71C1102.12 1276.02 1106.56 1258.55 1099.46 1241.28C1096.32 1233.63 1091.24 1226.79 1088.79 1218.88C1085.74 1209.05 1086.16 1198.17 1085.65 1187.98C1084.62 1167.41 1084.35 1146.71 1082.65 1126.19C1081.89 1117 1080.23 1108.28 1076.45 1099.85C1072.82 1091.73 1067.43 1084.35 1065.02 1075.74C1062.63 1067.26 1062.42 1058.32 1061.14 1049.65C1059.79 1040.49 1057.69 1031.46 1054.85 1022.65C1043.88 988.569 1023.78 957.946 1000.04 931.397C974.809 903.177 944.644 881.926 912.626 862.122C895.789 851.709 878.954 841.295 862.129 830.881C861.77 832.835 860.523 834.63 858.128 835.43C851.809 837.537 845.064 839.54 840.111 844.21C834.517 849.484 826.053 841.053 831.659 835.769C837.507 830.253 844.856 827.351 852.335 824.8C844.669 819.974 836.921 814.976 828.27 812.188C820.694 809.741 809.52 811.875 803.378 806.323C798.553 801.951 797.028 793.847 795.177 787.908C792.861 780.536 790.859 772.761 787.915 765.597C785.913 760.702 783 756.001 779.324 752.211C777.711 746.003 774.751 740.332 769.522 736.885C755.838 727.841 739.029 736.825 733.008 749.719C728.033 749.704 722.789 750.793 717.948 751.092C707.997 751.718 698.032 752.002 688.066 751.972C668.569 751.912 649.056 750.644 629.723 748.062C595.15 743.436 561.608 734.109 527.618 726.841C527.423 726.393 527.199 725.946 526.93 725.498C519.609 713.231 501.367 715.305 489.876 719.946C484.947 721.931 479.927 724.438 477.103 729.094C474.115 731.109 471.53 733.557 469.812 736.138C466.256 741.466 463.507 752.211 456.29 753.106C451.539 753.688 446.713 752.778 441.888 753.464C435.852 754.3 430.443 756.419 424.87 758.837C382.438 777.238 338.572 797.698 292.523 804.831C281.723 806.502 270.726 808.234 261.344 814.278C253.724 819.187 247.836 825.933 241.547 832.335C235.421 838.573 230.371 841.334 221.631 842.453C211.023 843.811 201.835 846.736 194.08 854.437C187.641 860.839 183.442 869.017 178.393 876.449C173.251 884.03 165.708 888.298 157.879 892.7C139.367 903.117 122.126 915.697 107.11 930.785C75.4806 962.602 56.3266 1003.49 37.0231 1043.34C16.1509 1086.44 -3.36174 1130.06 -16.8981 1176.08C-30.1654 1221.27 -38.0542 1267.76 -41.6997 1314.68C-45.5395 1363.91 -46.0773 1413.34 -49.2747 1462.6C-50.8733 1487.21 -52.0835 1511.84 -53.3087 1536.47C-54.5039 1560.79 -56.252 1585.16 -55.9696 1609.52C-55.4303 1656.6 -46.0041 1703.84 -29.523 1747.92C-25.4143 1758.89 -20.8589 1769.71 -16.0031 1780.36C-11.7435 1789.72 2.82373 1788.68 7.3956 1780.36C8.44145 1778.45 9.2632 1776.48 9.95047 1774.48C21.9031 1774.59 33.9752 1773.66 45.8531 1774.77C66.8299 1776.72 87.8501 1777.81 108.887 1779.11C150.513 1781.69 192.213 1783.41 233.853 1785.78C237.893 1786.01 241.933 1786.24 245.971 1786.48C216.297 1694.74 220.146 1595.56 215.45 1500.15C215.072 1492.46 227.028 1492.51 227.403 1500.15C232.118 1595.97 228.103 1695.41 258.826 1787.29C270.746 1788.1 282.649 1789.08 294.512 1790.53C304.102 1791.67 313.741 1793.03 323.422 1792.56C334.404 1792.03 345.131 1789.53 355.844 1787.35C375.312 1783.39 394.062 1785.18 413.605 1787.62C434.507 1790.23 455.484 1791.67 476.52 1792.59C560.756 1796.27 645.56 1799.63 729.766 1794C750.145 1792.64 770.479 1790.73 790.724 1788.14C811.581 1785.47 832.215 1780.97 853.055 1778.42C873.599 1775.92 892.486 1782.8 912.79 1784.06C933.497 1785.36 954.759 1781.05 975.272 1778.57C981.964 1777.76 988.664 1776.97 995.365 1776.19C986.738 1717.13 981.833 1657.63 977.068 1598.15C976.454 1590.48 988.411 1590.54 989.021 1598.15C993.747 1657.16 998.542 1716.22 1007.16 1774.82C1042.68 1770.69 1078.23 1766.51 1113.38 1760.08C1123.4 1758.26 1133.35 1755.29 1139.34 1746.37C1143.77 1739.76 1144.67 1731.65 1142.53 1724.04Z" fill="#027333"/>
</g>
<path fill-rule="evenodd" clip-rule="evenodd" d="M814.421 392.116C809.205 306.438 781.425 209.3 699.666 167.234C519.425 94.8392 282.444 277.15 269.897 463.394C265.524 527.147 300.892 596.81 365.526 614.535C379.896 633.589 401.628 645.225 423.078 655.324C678.56 787.98 843.591 680.146 814.421 392.116Z" fill="#F2F2F2"/>
<path fill-rule="evenodd" clip-rule="evenodd" d="M872.624 338.82C863.595 313.723 854.057 288.819 844.024 264.108C834.252 240.058 825.425 215.489 813.29 192.579C740.813 55.7452 609.017 55.7452 540.889 73.6242C505.559 58.3899 439.384 62.6871 402.596 76.4341C343.04 98.6892 270.44 186.236 245.618 225.569C190.815 312.415 156.613 428.004 193.017 528.358C197.775 541.474 203.843 553.621 210.675 565.328C206.371 571.165 201.418 576.694 195.93 582.127C179.624 598.273 163.317 613.888 149.231 632.098C135.232 650.196 123.627 669.442 114.988 690.661C98.6975 730.678 97.913 775.99 119.45 814.173C138.187 847.397 171.38 872.137 208.776 874.496C210.696 874.763 212.618 875.009 214.549 875.203C219.504 883.371 225.546 890.892 232.442 897.448C253.568 917.559 303.928 927.876 332.652 928.537C334.124 929.721 335.611 930.906 337.097 932.077C354.673 945.92 373.115 959.887 393.292 969.736C406.959 976.416 424.879 981.995 439.138 977.174C445.606 981.499 456.218 980.59 462.631 977.05C473.174 971.237 481.748 960.769 486.965 950.052C499.613 924.033 496.571 895.561 493.323 867.765C489.745 837.062 486.304 806.345 482.808 775.643C480.069 751.634 477.207 727.226 469.912 704.099C466.141 692.116 461.2 680.6 454.814 669.774C454.979 668.865 454.951 667.956 454.69 667.102C452.598 660.297 448.276 656.73 443.156 652.101C442.496 651.509 441.835 650.903 441.188 650.283C438.628 647.363 435.889 644.65 432.958 642.349C431.829 641.206 430.714 640.049 429.6 638.892C420.337 629.181 411.584 618.974 403.807 608.038C396.265 597.431 389.452 586.357 382.97 575.076C376.377 563.602 372.014 550.943 365.435 539.552C364.871 538.574 363.44 538.381 362.642 539.194C360.605 541.301 359.297 543.643 359.545 546.109L358.526 546.26C358.141 542.541 354.714 539.511 350.062 540.323C343.098 541.535 337.372 541.99 331.344 539.676C332.404 532.637 333.381 525.585 334.344 518.519C336.106 505.516 337.744 492.472 339.148 479.427C342.547 480.24 345.919 481.411 349.222 482.898C353.929 485.006 358.375 487.843 362.174 491.328C365.917 494.772 368.505 499.414 373.074 501.811C378.332 504.552 384.676 500.02 383.135 494.069C380.011 482.044 362.325 475.157 351.383 472.885C347.626 472.099 343.786 471.769 339.946 471.852C340.813 463.477 341.584 455.102 342.217 446.714C342.52 442.747 342.795 438.78 343.057 434.799C351.562 432.223 360.673 431.452 369.523 432.664C372.441 434.992 375.359 437.292 378.18 439.62C387.14 447.03 396.059 454.482 404.867 462.072C405.665 462.747 406.45 463.422 407.248 464.11C412.478 468.615 419.002 464.152 418.121 457.774C410.937 405.515 442.922 363.944 480.372 331.74C521.827 296.078 597.194 291.926 646.494 230.155C669.199 234.78 719.893 248.516 740.813 281.877C770.102 328.627 766.275 370.514 768.505 423.545C770.735 476.617 776.405 531.976 764.362 584.305C753.255 632.556 723.183 673.782 676.525 692.735C675.369 693.204 674.199 693.658 673.03 694.099C648.903 703.204 622.574 705.78 597.194 700.986C569.104 695.669 545.651 682.804 522.281 666.978C520.932 666.082 518.964 667.928 519.983 669.278C550.785 710.132 611.288 723.783 659.28 712.997C661.523 712.488 663.753 711.937 665.969 711.331C655.234 742.226 657.395 776.139 671.378 806.221C679.787 824.321 692.615 839.982 708.236 852.338C725.454 865.947 746.814 876.938 758.761 896.043C769.702 913.55 766.454 933.22 747.723 943.33C743.002 945.892 741.185 954.171 745.865 957.807C747.654 959.185 749.443 960.589 751.273 961.967C761.761 969.887 790.567 984.763 795.233 985.314C836.66 990.232 864.517 959.791 882.368 923.881C903.329 881.732 897.879 830.368 874.784 790.23C856.259 758.025 819.773 726.289 834.279 685.531C839.454 670.972 850.038 658.562 860.319 647.349C872.046 634.581 884.653 622.625 895.897 609.401C907.073 596.274 916.983 581.99 922.515 565.516C930.594 541.439 926.576 515.406 920.506 491.37C907.5 439.771 890.612 388.862 872.624 338.82Z" fill="#027333"/>
<path fill-rule="evenodd" clip-rule="evenodd" d="M610.758 613.22C601.872 609.598 593.944 603.556 588.148 595.838C586.133 593.155 585.611 590.321 586.033 587.73C586.509 584.816 588.234 582.175 590.587 580.404C592.947 578.627 595.899 577.75 598.753 578.197C601.233 578.585 603.702 579.942 605.656 582.756L606.064 583.319C609.51 587.977 614 591.8 619.117 594.263C624.048 596.638 629.564 597.746 635.271 597.102C646.141 595.875 653.634 590 661.597 582.023C662.584 581.016 663.572 579.977 664.565 578.922C665.191 577.965 666.061 577.35 667.027 577.027C668.099 576.669 669.312 576.689 670.423 577.077C671.495 577.45 672.453 578.159 673.095 579.101C673.706 579.997 674.052 581.103 673.94 582.376C673.211 590.643 668.885 598.021 662.741 603.815C655.918 610.249 646.872 614.7 638.356 616.262C628.974 617.981 619.415 616.749 610.758 613.22ZM642.782 485.683C652.764 491.746 667.972 505.882 657.235 520.912C644.595 534.165 626.397 518.97 617.43 512.098C609.115 506.772 599.772 520.47 607.487 526.689C672.287 574.628 698.584 487.268 647.831 478.555C642.243 477.595 640.167 483.807 642.782 485.683ZM526.661 429.917C527.764 416.238 548.612 413.132 550.686 426.668C552.543 438.793 550.357 449.931 544.891 460.848C539.669 471.277 526.542 466.411 525.55 456.915C524.219 444.185 525.975 438.426 526.661 429.917ZM685.361 423.861C688.268 420.057 692.464 417.46 697.492 418.928C713.202 423.515 708.572 445.801 703.055 456.649C700.057 462.54 690.367 464.034 685.987 458.847C678.85 450.388 675.432 433.497 684.506 425.165C684.752 424.734 685.025 424.3 685.361 423.861ZM544.67 370.063L547.151 369.629C554.828 368.302 564.373 367.027 569.804 373.195C572.684 376.465 573.675 382.543 569.804 385.674C562.994 391.181 555.465 389.047 547.304 389.513C540.579 389.899 534.115 391.011 527.637 392.862C513.425 396.92 501.845 404.33 489.707 412.466C488.114 413.534 486.488 411.498 487.248 410.01C494.255 396.296 507.834 385.03 521.435 378.163C528.695 374.498 536.639 371.458 544.67 370.063ZM671.04 363.92L672.94 364.308C693.609 368.625 720.463 377.249 730.251 397.536C730.624 400.405 730.23 401.02 729.91 401.421L729.803 401.555C729.539 401.898 729.328 402.371 728.084 402.761C727.739 402.679 727.39 402.592 727.037 402.5C722.551 401.325 719.001 399.706 715.564 398.027L711.838 396.193C707.515 394.074 703.154 392.033 698.532 390.527C688.669 387.312 678.523 385.047 668.221 383.838C665.988 383.576 663.838 382.823 662.141 381.532C660.531 380.307 659.301 378.611 658.74 376.357C658.013 373.439 658.222 371.23 659.789 368.598C660.967 366.621 662.652 365.251 664.588 364.464C666.561 363.662 668.807 363.473 671.04 363.92Z" fill="#027333"/>
<path fill-rule="evenodd" clip-rule="evenodd" d="M768.439 451.762C756.483 532.565 673.023 541.502 658.194 461.283C660.574 460.242 662.285 458.192 661.928 454.213C661.844 436.731 667.275 418.255 683.059 408.533C699.368 398.502 718.456 397.507 737.331 397.76C773.349 396.903 772.591 426.983 768.439 451.762ZM645.128 416.62C633.824 416.144 619.523 416.542 609.397 423.423C606.613 415.933 599.379 407.935 592.071 403.659C619.236 404.453 647.198 401.782 674.566 399.708C668.015 404.17 661.921 410.874 657.959 418.623C654.284 416.665 649.019 416.848 645.128 416.62ZM595.303 460.329C563.958 568.13 485.718 521.143 477.188 507.328C461.802 484.466 458.908 428.891 472.309 414.032C491.494 400.595 518.652 404.054 541.315 403.724C582.95 404.285 612.52 416.73 595.303 460.329ZM805.45 410.747C796.934 409.634 787.833 409.41 779.915 413.157C777.477 402.803 769.824 394.148 761.182 390.339C760.136 389.028 760.293 388.324 756.72 388.521C734.781 381.932 710.231 385.418 689.148 392.174C655.851 394.976 620.917 397.185 587.341 401.045C555.887 386.932 460.965 384.863 455.067 419.649C447.646 418.541 435.01 412.705 428.774 420.621C383.039 412.873 335.78 423.64 289.846 428.435C278.284 430.563 272.329 453.49 285.454 453.177C292.832 451.176 285.227 438.9 295.162 437.977C339.481 433.14 382.83 426.279 427.603 425.476C426.046 433.2 457.216 433.703 457.676 429.192C457.743 429.226 457.813 429.249 457.881 429.279C450.178 457.959 457.131 499.235 471.05 517.02C490.553 540.307 539.517 546.988 561.228 532.005C589.234 518.176 618.369 448.759 610.185 425.696C625.038 420.993 639.722 422.405 655.136 424.8C651.607 434.76 645.515 459.279 654.28 461.405C652.671 510.083 697.01 540.457 737.884 520.488C773.261 503.895 785.633 451.372 781.305 419.493C785.709 427.996 822.688 418.739 805.45 410.747Z" fill="#027333"/>
</g>
<defs>
<clipPath id="clip0_0_1">
<rect width="1080" height="1080" fill="white"/>
</clipPath>
<clipPath id="clip1_0_1">
<rect width="1172" height="1049" fill="white" transform="translate(-56 748)"/>
</clipPath>
</defs>
</svg>
